<?xml version="1.0" standalone="no"?>
<!DOCTYPE svg PUBLIC "-//W3C//DTD SVG 20010904//EN"
 "http://www.w3.org/TR/2001/REC-SVG-20010904/DTD/svg10.dtd">
<svg version="1.0" xmlns="http://www.w3.org/2000/svg"
 width="225.000000pt" height="225.000000pt" viewBox="0 0 225.000000 225.000000"
 preserveAspectRatio="xMidYMid meet">
<metadata>
Created by potrace 1.14, written by Peter Selinger 2001-2017
</metadata>
<g transform="translate(0.000000,225.000000) scale(0.100000,-0.100000)"
fill="#000000" stroke="none">
<path d="M902 2059 c-112 -65 -206 -119 -208 -119 -2 0 -4 22 -4 50 0 38 -4
52 -19 60 -25 13 -201 13 -221 0 -12 -7 -15 -35 -16 -135 l-1 -126 -34 -21
c-98 -61 -302 -178 -309 -178 -4 0 -19 -11 -34 -25 -22 -21 -25 -28 -16 -45 9
-18 21 -20 100 -20 l90 0 0 -595 0 -594 -77 -3 -78 -3 -3 -109 c-1 -62 2 -114
7 -119 14 -14 2078 -14 2092 0 10 10 14 207 4 223 -3 6 -40 10 -81 10 l-74 0
0 595 0 594 93 3 c91 3 92 3 95 29 3 23 -6 31 -75 71 -113 65 -563 327 -598
349 -16 10 -37 22 -45 26 -8 4 -90 51 -182 105 -92 54 -175 98 -185 97 -10 0
-110 -54 -221 -120z m338 -444 c105 -17 239 -86 321 -166 130 -126 193 -276
193 -459 -1 -178 -57 -313 -184 -440 -121 -122 -251 -179 -420 -185 -119 -5
-198 12 -310 67 -144 70 -278 226 -319 373 -50 176 -24 380 67 521 101 156
273 271 435 290 28 4 53 7 54 8 5 5 120 -2 163 -9z"/>
<path d="M1045 1371 c-87 -23 -172 -88 -216 -167 -28 -48 -32 -52 -67 -51 -48
1 -89 -27 -100 -67 -6 -20 -2 -95 13 -219 22 -192 26 -206 66 -207 10 0 20
-11 23 -25 9 -35 53 -35 62 0 7 30 20 31 351 27 241 -3 242 -3 245 -25 2 -16
11 -23 30 -25 22 -3 29 2 34 22 3 15 13 26 23 26 35 0 43 18 57 131 31 251 33
284 15 317 -14 27 -70 51 -102 45 -23 -4 -30 2 -57 49 -58 103 -159 166 -279
173 -37 2 -81 1 -98 -4z m162 -76 c97 -29 186 -137 185 -225 -1 -36 -5 -77
-18 -160 l-5 -35 -244 0 c-156 0 -245 4 -246 10 0 6 -2 19 -4 30 -3 11 -7 58
-11 105 -7 97 3 133 55 193 77 87 176 115 288 82z"/>
</g>
</svg>
